<svg width="512" height="512" viewBox="0 0 512 512" fill="none" xmlns="http://www.w3.org/2000/svg">
<path d="M19.3003 451.665C7.5065 440.112 1.23977 427.5 1 414.338V312.509H511V414.338C510.744 427.5 504.469 440.112 492.672 451.665C480.866 463.227 463.567 473.685 441.401 482.488C397.071 500.092 333.466 511 256 511C178.534 511 114.912 500.092 70.5746 482.488C48.4044 473.685 31.1038 463.227 19.3003 451.665Z" fill="#EB503B" stroke="white" stroke-width="2"/>
<path d="M511 311.106C511 339.094 486.452 364.776 441.989 383.511C397.61 402.21 333.753 413.808 256 413.808C178.247 413.808 114.39 402.21 70.0106 383.511C25.5481 364.776 1 339.094 1 311.106C1 283.118 25.5481 257.436 70.0106 238.702C114.39 220.002 178.247 208.404 256 208.404C333.753 208.404 397.61 219.988 441.99 238.68C486.452 257.407 511 283.089 511 311.106Z" fill="#FFFBF8" stroke="white" stroke-width="2"/>
<path d="M19.3162 337.357C7.51228 325.26 1.23988 312.282 1 299.114V208.807H511V299.113C510.744 312.282 504.463 325.259 492.657 337.357C480.843 349.46 463.54 360.635 441.375 370.154C397.05 389.192 333.452 401.537 256 401.537C178.548 401.537 114.934 389.192 70.6001 370.154C48.432 360.635 31.1262 349.46 19.3162 337.357Z" fill="#EB503B" stroke="white" stroke-width="2"/>
<path d="M511 207.404C511 235.392 486.452 261.074 441.989 279.808C397.61 298.508 333.753 310.106 256 310.106C178.247 310.106 114.39 298.508 70.0106 279.808C25.5481 261.074 1 235.392 1 207.404C1 179.416 25.5481 153.734 70.0106 135C114.39 116.3 178.247 104.702 256 104.702C333.753 104.702 397.61 116.286 441.99 134.978C486.452 153.705 511 179.387 511 207.404Z" fill="#FFFBF8" stroke="white" stroke-width="2"/>
<path d="M19.3162 233.655C7.51228 221.557 1.23988 208.58 1 195.412V105.105H511V195.411C510.744 208.58 504.463 221.557 492.657 233.655C480.843 245.758 463.54 256.933 441.375 266.452C397.05 285.49 333.452 297.835 256 297.835C178.548 297.835 114.934 285.49 70.6001 266.452C48.432 256.933 31.1262 245.758 19.3162 233.655Z" fill="#EB503B" stroke="white" stroke-width="2"/>
<path d="M511 103.702C511 131.69 486.452 157.372 441.989 176.106C397.61 194.806 333.753 206.404 256 206.404C178.247 206.404 114.39 194.806 70.0106 176.106C25.5481 157.372 1 131.69 1 103.702C1 75.7139 25.5481 50.0318 70.0106 31.2976C114.39 12.5983 178.247 1 256 1C333.753 1 397.61 12.5839 441.99 31.276C486.452 50.0029 511 75.685 511 103.702Z" fill="#FE614B" stroke="white" stroke-width="2"/>
<path d="M210.554 67.6062L169.097 46.3878L184.387 38.5617L227.59 60.6736L227.735 60.7479L227.896 60.7224C230.554 60.3008 233.38 60.0735 236.311 60.0735C244.161 60.0735 251.244 61.7031 256.345 64.3141C261.473 66.9388 264.465 70.4748 264.465 74.2395C264.465 75.6504 264.049 77.0222 263.258 78.3278L262.98 78.7872L263.458 79.0319L306.911 101.272L307.058 101.347L307.22 101.321C309.971 100.866 312.904 100.621 315.954 100.621C323.804 100.621 330.886 102.25 335.987 104.861C341.115 107.486 344.108 111.022 344.108 114.786C344.108 118.551 341.115 122.087 335.987 124.712C330.886 127.323 323.804 128.952 315.954 128.952C308.103 128.952 301.021 127.323 295.92 124.712C290.792 122.087 287.799 118.551 287.799 114.786C287.799 112.782 288.641 110.851 290.209 109.077L290.636 108.595L290.062 108.301L249.603 87.5928L248.875 87.2203V88.0379V141.63V142.015L249.248 142.113C253.829 143.316 257.655 145.131 260.324 147.322C262.995 149.513 264.465 152.041 264.465 154.686C264.465 158.451 261.473 161.987 256.345 164.611C251.244 167.222 244.161 168.852 236.311 168.852C228.461 168.852 221.379 167.222 216.278 164.611C211.15 161.987 208.157 158.451 208.157 154.686C208.157 151.769 209.948 148.992 213.159 146.658C216.365 144.327 220.926 142.487 226.293 141.451L226.698 141.373V140.96V87.9654V87.5527L226.293 87.4745C220.926 86.4382 216.365 84.5984 213.159 82.2677C209.948 79.9333 208.157 77.1568 208.157 74.2395C208.157 72.1819 209.045 70.2001 210.695 68.388L211.136 67.9043L210.554 67.6062Z" fill="white" stroke="black"/>
</svg>
