<svg width="520" height="520" viewBox="0 0 520 520" fill="none" xmlns="http://www.w3.org/2000/svg">
<g filter="url(#filter0_d_1_10)">
<circle cx="260" cy="256" r="256" fill="url(#paint0_linear_1_10)"/>
<path d="M128.733 288.414V347.507C129.23 378.527 180.279 403.621 259.5 403.621C338.721 403.621 389.737 378.527 390.267 347.507V288.414H128.733Z" fill="#1B9BDB"/>
<path d="M390.267 288.182C390.267 321.089 339.019 347.772 259.5 347.772C179.981 347.772 128.733 321.089 128.733 288.182C128.733 255.275 179.981 228.592 259.5 228.592C339.019 228.592 390.267 255.242 390.267 288.182Z" fill="white"/>
<path d="M128.733 228.824V281.296C129.23 312.316 180.279 340.72 259.5 340.72C338.721 340.72 389.737 312.316 390.267 281.296V228.824H128.733Z" fill="#1B9BDB"/>
<path d="M390.267 228.592C390.267 261.499 339.019 288.182 259.5 288.182C179.981 288.182 128.733 261.499 128.733 228.592C128.733 195.685 179.981 169.002 259.5 169.002C339.019 169.002 390.267 195.652 390.267 228.592Z" fill="white"/>
<path d="M128.733 169.234V221.706C129.23 252.726 180.279 281.13 259.5 281.13C338.721 281.13 389.737 252.726 390.267 221.706V169.234H128.733Z" fill="#1B9BDB"/>
<path d="M390.267 169.002C390.267 201.909 339.019 228.592 259.5 228.592C179.981 228.592 128.733 201.909 128.733 169.002C128.733 136.095 179.981 109.412 259.5 109.412C339.019 109.412 390.267 136.062 390.267 169.002Z" fill="#3ED6FF"/>
<path d="M145.895 268.468C139.285 261.858 139.285 251.142 145.895 244.532L247.532 142.895C254.142 136.285 264.858 136.285 271.468 142.895L373.105 244.532C379.715 251.142 379.715 261.858 373.105 268.468L271.468 370.105C264.858 376.715 254.142 376.715 247.532 370.105L145.895 268.468Z" fill="#EA6126"/>
<path d="M226.886 163.865L216.594 174.157L243.176 200.74C242.101 203.047 241.501 205.62 241.501 208.333C241.501 216.036 246.34 222.609 253.145 225.176V290.204C246.34 292.771 241.501 299.343 241.501 307.047C241.501 316.986 249.558 325.043 259.497 325.043C269.436 325.043 277.493 316.986 277.493 307.047C277.493 300.063 273.515 294.008 267.701 291.025V225.265L293.112 250.675C292.089 252.935 291.519 255.445 291.519 258.087C291.519 268.026 299.577 276.083 309.516 276.083C319.455 276.083 327.512 268.026 327.512 258.087C327.512 248.148 319.455 240.091 309.516 240.091C307.584 240.091 305.724 240.395 303.98 240.958L276.689 213.668C277.212 211.982 277.493 210.19 277.493 208.333C277.493 198.394 269.436 190.337 259.497 190.337C257.639 190.337 255.848 190.618 254.162 191.141L226.886 163.865Z" fill="#F9F9F9"/>
</g>
<defs>
<filter id="filter0_d_1_10" x="0" y="0" width="520" height="520" filterUnits="userSpaceOnUse" color-interpolation-filters="sRGB">
<feFlood flood-opacity="0" result="BackgroundImageFix"/>
<feColorMatrix in="SourceAlpha" type="matrix" values="0 0 0 0 0 0 0 0 0 0 0 0 0 0 0 0 0 0 127 0" result="hardAlpha"/>
<feOffset dy="4"/>
<feGaussianBlur stdDeviation="2"/>
<feComposite in2="hardAlpha" operator="out"/>
<feColorMatrix type="matrix" values="0 0 0 0 0 0 0 0 0 0 0 0 0 0 0 0 0 0 0.25 0"/>
<feBlend mode="normal" in2="BackgroundImageFix" result="effect1_dropShadow_1_10"/>
<feBlend mode="normal" in="SourceGraphic" in2="effect1_dropShadow_1_10" result="shape"/>
</filter>
<linearGradient id="paint0_linear_1_10" x1="260" y1="0" x2="260" y2="512" gradientUnits="userSpaceOnUse">
<stop stop-color="#AE3E3E"/>
<stop offset="1" stop-color="#7E3A89" stop-opacity="0.99"/>
</linearGradient>
</defs>
</svg>
